<svg width="48" height="48" viewBox="0 0 48 48" fill="none" xmlns="http://www.w3.org/2000/svg">
<path d="M24.8 43.5C19.6283 43.5 14.6684 41.4455 11.0114 37.7886C7.35445 34.1316 5.29999 29.1717 5.29999 24C5.29999 18.8283 7.35445 13.8684 11.0114 10.2114C14.6684 6.55446 19.6283 4.5 24.8 4.5C25.1978 4.5 25.5793 4.65804 25.8606 4.93934C26.142 5.22064 26.3 5.60218 26.3 6C26.3 6.39782 26.142 6.77936 25.8606 7.06066C25.5793 7.34196 25.1978 7.5 24.8 7.5C20.4239 7.5 16.2271 9.23839 13.1327 12.3327C10.0384 15.4271 8.29999 19.6239 8.29999 24C8.29999 28.3761 10.0384 32.5729 13.1327 35.6673C16.2271 38.7616 20.4239 40.5 24.8 40.5C26.9865 40.5071 29.1522 40.0753 31.1688 39.2302C33.1854 38.3851 35.0118 37.1439 36.54 35.58C36.8211 35.2962 37.2035 35.1357 37.6029 35.1339C38.0024 35.132 38.3862 35.2889 38.67 35.57C38.9538 35.8511 39.1143 36.2335 39.1161 36.6329C39.118 37.0324 38.9611 37.4162 38.68 37.7C36.8698 39.5431 34.7093 41.0056 32.3257 42.0017C29.9421 42.9977 27.3834 43.5071 24.8 43.5Z" fill="white"/>
<path d="M24.2 30.9002C24.0029 30.9011 23.8076 30.8626 23.6256 30.7871C23.4436 30.7115 23.2785 30.6004 23.14 30.4602L15.14 22.4602C14.8751 22.1758 14.7308 21.7997 14.7377 21.4111C14.7445 21.0225 14.9019 20.6517 15.1768 20.3769C15.4516 20.1021 15.8224 19.9447 16.211 19.9378C16.5996 19.9309 16.9757 20.0752 17.26 20.3402L24.2 27.2802L40.2 11.2802C40.3373 11.1328 40.5029 11.0146 40.6869 10.9326C40.8709 10.8506 41.0696 10.8065 41.271 10.803C41.4724 10.7994 41.6724 10.8365 41.8592 10.9119C42.046 10.9873 42.2157 11.0996 42.3581 11.2421C42.5005 11.3845 42.6128 11.5542 42.6883 11.741C42.7637 11.9277 42.8007 12.1278 42.7972 12.3292C42.7936 12.5306 42.7496 12.7292 42.6676 12.9132C42.5856 13.0972 42.4674 13.2628 42.32 13.4002L25.32 30.4002C25.1808 30.5597 25.0085 30.6871 24.8151 30.7735C24.6217 30.8598 24.4118 30.903 24.2 30.9002Z" fill="white"/>
</svg>
